<?xml version="1.0" encoding="UTF-8" standalone="no"?>
<!-- Created with Inkscape (http://www.inkscape.org/) -->

<svg
   xmlns:dc="http://purl.org/dc/elements/1.1/"
   xmlns:cc="http://creativecommons.org/ns#"
   xmlns:rdf="http://www.w3.org/1999/02/22-rdf-syntax-ns#"
   xmlns:svg="http://www.w3.org/2000/svg"
   xmlns="http://www.w3.org/2000/svg"
   xmlns:sodipodi="http://sodipodi.sourceforge.net/DTD/sodipodi-0.dtd"
   xmlns:inkscape="http://www.inkscape.org/namespaces/inkscape"
   width="200mm"
   height="200mm"
   viewBox="0 0 200 200"
   version="1.1"
   id="svg4037"
   inkscape:version="0.92.4 (5da689c313, 2019-01-14)"
   sodipodi:docname="logo.svg">
  <defs
     id="defs4031" />
  <sodipodi:namedview
     id="base"
     pagecolor="#ffffff"
     bordercolor="#666666"
     borderopacity="1.0"
     inkscape:pageopacity="0.0"
     inkscape:pageshadow="2"
     inkscape:zoom="0.98994949"
     inkscape:cx="401.18504"
     inkscape:cy="426.59108"
     inkscape:document-units="mm"
     inkscape:current-layer="layer1"
     showgrid="false"
     inkscape:window-width="1920"
     inkscape:window-height="1027"
     inkscape:window-x="-8"
     inkscape:window-y="-8"
     inkscape:window-maximized="1"
     width="200mm"
     guidetolerance="10000" />
  <metadata
     id="metadata4034">
    <rdf:RDF>
      <cc:Work
         rdf:about="">
        <dc:format>image/svg+xml</dc:format>
        <dc:type
           rdf:resource="http://purl.org/dc/dcmitype/StillImage" />
        <dc:title></dc:title>
      </cc:Work>
    </rdf:RDF>
  </metadata>
  <g
     inkscape:label="Camada 1"
     inkscape:groupmode="layer"
     id="layer1"
     transform="translate(0,-97)">
    <g
       id="g20"
       transform="matrix(1.6045048,0,0,-1.6045048,126.41684,120.01223)">
      <path
         d="M 0,0 -8.338,-14.63 H -24.04 L -15.333,0 Z"
         style="fill:#81c1ea;fill-opacity:1;fill-rule:nonzero;stroke:none"
         id="path22"
         inkscape:connector-curvature="0" />
    </g>
    <g
       id="g24"
       transform="matrix(1.6045048,0,0,-1.6045048,126.41684,120.01223)">
      <path
         d="M 0,0 -8.338,-14.63 H -24.04 L -15.333,0 Z"
         style="fill:none;stroke:#606264;stroke-width:1.5;stroke-linecap:round;stroke-linejoin:round;stroke-miterlimit:10;stroke-dasharray:none;stroke-opacity:1"
         id="path26"
         inkscape:connector-curvature="0" />
    </g>
    <g
       id="g28"
       transform="matrix(1.6045048,0,0,-1.6045048,114.18409,212.06058)">
      <path
         d="m 0,0 17.853,30.65 h -53.092 l 7.147,-11.984 H -2.83 L -13.648,0 Z"
         style="fill:#ee6b6a;fill-opacity:1;fill-rule:nonzero;stroke:none"
         id="path30"
         inkscape:connector-curvature="0" />
    </g>
    <g
       id="g32"
       transform="matrix(1.6045048,0,0,-1.6045048,114.18409,212.06058)">
      <path
         d="m 0,0 17.853,30.65 h -53.092 l 7.147,-11.984 H -2.83 L -13.648,0 Z"
         style="fill:none;stroke:#606264;stroke-width:1.5;stroke-linecap:round;stroke-linejoin:round;stroke-miterlimit:10;stroke-dasharray:none;stroke-opacity:1"
         id="path34"
         inkscape:connector-curvature="0" />
    </g>
    <g
       id="g36"
       transform="matrix(1.6045048,0,0,-1.6045048,126.41684,120.03502)">
      <path
         d="m 0,0 -15.333,0.014 -6.402,12.921 h 14.657 z"
         style="fill:#fff7ca;fill-opacity:1;fill-rule:nonzero;stroke:none"
         id="path38"
         inkscape:connector-curvature="0" />
    </g>
    <g
       id="g40"
       transform="matrix(1.6045048,0,0,-1.6045048,126.41684,120.03502)">
      <path
         d="m 0,0 -15.333,0.014 -6.402,12.921 H -7.078 L 0,0"
         style="fill:none;stroke:#606264;stroke-width:1.5;stroke-linecap:round;stroke-linejoin:round;stroke-miterlimit:10;stroke-dasharray:none;stroke-opacity:1"
         id="path42"
         inkscape:connector-curvature="0" />
    </g>
    <g
       id="g44"
       transform="matrix(1.6045048,0,0,-1.6045048,57.642619,162.88268)">
      <path
         d="M 0,0 H 53.092 L 45.766,12.088 H 18.823 l 8.707,14.631 -6.402,12.92 z"
         style="fill:#98d5c9;fill-opacity:1;fill-rule:nonzero;stroke:none"
         id="path46"
         inkscape:connector-curvature="0" />
    </g>
    <g
       id="g48"
       transform="matrix(1.6045048,0,0,-1.6045048,57.642619,162.88268)">
      <path
         d="M 0,0 H 53.092 L 45.766,12.088 H 18.823 l 8.707,14.631 -6.402,12.92 z"
         style="fill:none;stroke:#606264;stroke-width:1.5;stroke-linecap:round;stroke-linejoin:round;stroke-miterlimit:10;stroke-dasharray:none;stroke-opacity:1"
         id="path50"
         inkscape:connector-curvature="0" />
    </g>
    <g
       id="g52"
       transform="matrix(1.6045048,0,0,-1.6045048,75.511526,274.16457)">
      <path
         d="M 0,0 8.338,14.631 H 24.039 L 15.333,0 Z"
         style="fill:#f4aa88;fill-opacity:1;fill-rule:nonzero;stroke:none"
         id="path54"
         inkscape:connector-curvature="0" />
    </g>
    <g
       id="g56"
       transform="matrix(1.6045048,0,0,-1.6045048,75.511526,274.16457)">
      <path
         d="M 0,0 8.338,14.631 H 24.039 L 15.333,0 Z"
         style="fill:none;stroke:#606264;stroke-width:1.5;stroke-linecap:round;stroke-linejoin:round;stroke-miterlimit:10;stroke-dasharray:none;stroke-opacity:1"
         id="path58"
         inkscape:connector-curvature="0" />
    </g>
    <g
       id="g60"
       transform="matrix(1.6045048,0,0,-1.6045048,87.744235,182.11076)">
      <path
         d="m 0,0 -17.853,-30.652 h 53.091 l -7.147,11.986 H 2.83 L 13.648,0 Z"
         style="fill:#98d5c9;fill-opacity:1;fill-rule:nonzero;stroke:none"
         id="path62"
         inkscape:connector-curvature="0" />
    </g>
    <g
       id="g64"
       transform="matrix(1.6045048,0,0,-1.6045048,87.744235,182.11076)">
      <path
         d="m 0,0 -17.853,-30.652 h 53.091 l -7.147,11.986 H 2.83 L 13.648,0 Z"
         style="fill:none;stroke:#606264;stroke-width:1.5;stroke-linecap:round;stroke-linejoin:round;stroke-miterlimit:10;stroke-dasharray:none;stroke-opacity:1"
         id="path66"
         inkscape:connector-curvature="0" />
    </g>
    <g
       id="g68"
       transform="matrix(1.6045048,0,0,-1.6045048,75.511526,274.13955)">
      <path
         d="m 0,0 15.333,-0.016 6.402,-12.919 H 7.078 Z"
         style="fill:#ee6b6a;fill-opacity:1;fill-rule:nonzero;stroke:none"
         id="path70"
         inkscape:connector-curvature="0" />
    </g>
    <g
       id="g72"
       transform="matrix(1.6045048,0,0,-1.6045048,75.511526,274.13955)">
      <path
         d="m 0,0 15.333,-0.016 6.402,-12.919 H 7.078 L 0,0"
         style="fill:none;stroke:#606264;stroke-width:1.5;stroke-linecap:round;stroke-linejoin:round;stroke-miterlimit:10;stroke-dasharray:none;stroke-opacity:1"
         id="path74"
         inkscape:connector-curvature="0" />
    </g>
    <g
       id="g76"
       transform="matrix(1.6045048,0,0,-1.6045048,144.28432,231.29266)">
      <path
         d="m 0,0 h -53.091 l 7.326,-12.089 h 26.942 l -8.706,-14.631 6.402,-12.919 z"
         style="fill:#fff7ca;fill-opacity:1;fill-rule:nonzero;stroke:none"
         id="path78"
         inkscape:connector-curvature="0" />
    </g>
    <g
       id="g80"
       transform="matrix(1.6045048,0,0,-1.6045048,144.28432,231.29266)">
      <path
         d="m 0,0 h -53.091 l 7.326,-12.089 h 26.942 l -8.706,-14.631 6.402,-12.919 z"
         style="fill:none;stroke:#606264;stroke-width:1.5;stroke-linecap:round;stroke-linejoin:round;stroke-miterlimit:10;stroke-dasharray:none;stroke-opacity:1"
         id="path82"
         inkscape:connector-curvature="0" />
    </g>
  </g>
</svg>
